# xmcd
#
# Track frame offsets:
# 150
# 14275
# 28647
# 46648
# 65074
# 89889
# 103385
# 117852
# 139544
# 166962
# 189280
#
# Disc length: 2666 seconds
#
# Revision: 0
# Processed by: cddbd v1.4PL0 Copyright (c) Steve Scherf et al.
# Submitted via: Audion 3.0.2 (http://www.panic.com/audion/)
#
DISCID=910a680b
DTITLE=BEATOS - A PRIMEIRA VEZ
DYEAR=1900
DGENRE=
TTITLE0=ME DESCULPE
TTITLE1=ASDF
TTITLE2=ASDF
TTITLE3=ASDF
TTITLE4=ASDF
TTITLE5=ASDF
TTITLE6=ASFD
TTITLE7=ASF
TTITLE8=ADF
TTITLE9=ASDF
TTITLE10=A
EXTD=
EXTT0=
EXTT1=
EXTT2=
EXTT3=
EXTT4=
EXTT5=
EXTT6=
EXTT7=
EXTT8=
EXTT9=
EXTT10=
PLAYORDER=
